# xmcd CD database file
#
# Track frame offsets:
#	150
#	33669
#	89773
#	110070
#	148823
#	174863
#	194272
#	218334
#	234023
#
# Disc length: 3523 seconds
#
# Revision: 0
# Processed by: cddbd v1.5.1PL2 Copyright (c) Steve Scherf et al.
# Submitted via: CDex 1.51
#
DISCID=770dc109
DTITLE=桂文治 - 桂文治2 朝日名人会ライブシリーズ14
DYEAR=1900
DGENRE=Comedy
TTITLE0=「親子酒」 出囃子「武蔵名物」・マクラ
TTITLE1=「親子酒」 鬼の居ぬ間
TTITLE2=「親子酒」 争えぬは血筋か・サゲ・追い出し
TTITLE3=「禁酒番屋」 出囃子「武蔵名物」・マクラ
TTITLE4=「禁酒番屋」 番屋が出来たわけ
TTITLE5=「禁酒番屋」 至上命令だが
TTITLE6=「禁酒番屋」 カステラ作戦
TTITLE7=「禁酒番屋」 油作戦
TTITLE8=「禁酒番屋」 意趣返し・サゲ・追い出し
EXTD=
EXTT0=
EXTT1=
EXTT2=
EXTT3=
EXTT4=
EXTT5=
EXTT6=
EXTT7=
EXTT8=
PLAYORDER=
